<svg width="76" height="48"><path d="M38 47.633c22.324 0 37.588-18.018 37.588-23.613C75.588 18.395 60.266.406 38 .406 15.998.406.383 18.395.383 24.02c0 5.595 15.615 23.613 37.617 23.613zm0-8.262c-8.555 0-15.352-7.002-15.41-15.351C22.56 15.436 29.445 8.697 38 8.697c8.525 0 15.41 6.768 15.41 15.323 0 8.35-6.885 15.351-15.41 15.351zm.03-9.756c3.075 0 5.624-2.549 5.624-5.595 0-3.077-2.549-5.625-5.625-5.625-3.134 0-5.683 2.548-5.683 5.625 0 3.046 2.549 5.595 5.683 5.595z" fill="#000" fill-rule="nonzero"/></svg>
