<svg width="50" height="61"><path d="M24.985 60.621c13.653 0 24.61-10.986 24.61-24.639 0-13.652-10.928-24.55-24.58-24.55-1.494 0-3.018.117-4.512.38L27.65 4.84c.41-.498.645-1.084.645-1.7 0-1.376-1.025-2.46-2.344-2.46-.703 0-1.289.263-1.728.732L12.827 12.984a2.535 2.535 0 00-.762 1.787c0 .674.235 1.26.762 1.788l11.397 11.484c.44.44.996.674 1.728.674 1.319 0 2.344-1.026 2.344-2.403 0-.615-.234-1.171-.674-1.64l-8.057-7.998c1.612-.322 3.428-.469 5.45-.469 10.986 0 19.746 8.76 19.746 19.775 0 10.987-8.79 19.805-19.776 19.805-10.957 0-19.746-8.818-19.746-19.805 0-1.435-.937-2.49-2.343-2.49-1.465 0-2.49 1.055-2.49 2.49 0 13.653 10.956 24.64 24.58 24.64z" fill="#000" fill-rule="nonzero"/></svg>
