<svg width="57" height="58"><path d="M28.515 57.408c15.527 0 28.388-12.861 28.388-28.418 0-15.527-12.89-28.388-28.418-28.388C12.958.602.097 13.462.097 28.99c0 15.557 12.89 28.418 28.418 28.418zm-4.746-18.34H21.16c-1.289 0-1.875-.703-1.875-1.757V20.699c0-1.054.586-1.758 1.875-1.758h2.608c1.26 0 1.845.704 1.845 1.758v16.612c0 1.054-.586 1.757-1.845 1.757zm12.07 0H33.26c-1.29 0-1.905-.703-1.905-1.757V20.699c0-1.054.616-1.758 1.905-1.758h2.578c1.26 0 1.875.704 1.875 1.758v16.612c0 1.054-.615 1.757-1.875 1.757z" fill-rule="nonzero"/></svg>
